<svg width="16" height="16" viewBox="0 0 16 16" fill="none" xmlns="http://www.w3.org/2000/svg">
<path d="M1.85811 1.88519L6.00016 6.02724L7.97271 7.9998L8.48608 8.51316L10.4496 10.4767L10.5108 10.5379L11.9729 12L14.1146 14.1417L13.1718 15.0845L0.915303 2.828L1.85811 1.88519Z" fill="#A94E00"/>
<path fill-rule="evenodd" clip-rule="evenodd" d="M6.58333 7.41662C6.20083 7.03411 6.00643 6.57099 6.00016 6.02724L7.97271 7.9998C7.42897 7.99352 6.96584 7.79913 6.58333 7.41662ZM9.3488 7.49026C9.37459 7.46654 9.39999 7.44199 9.425 7.41662C9.80833 7.02773 10 6.55551 10 5.99995C10 5.43329 9.80833 4.95829 9.425 4.57495C9.04167 4.19162 8.56667 3.99995 8 3.99995C7.44444 3.99995 6.97222 4.19162 6.58333 4.57495C6.55796 4.59996 6.53341 4.62537 6.5097 4.65116L7.45932 5.60078C7.47893 5.57441 7.50082 5.54913 7.525 5.52495C7.65278 5.39717 7.81111 5.33329 8 5.33329C8.18889 5.33329 8.34722 5.39717 8.475 5.52495C8.60278 5.65273 8.66667 5.81106 8.66667 5.99995C8.66667 6.18884 8.60278 6.34718 8.475 6.47495C8.45082 6.49913 8.42554 6.52103 8.39917 6.54063L9.3488 7.49026ZM8.48608 8.51316C8.32779 8.50435 8.16577 8.49995 8 8.49995C7.42222 8.49995 6.88611 8.55551 6.39167 8.66662C5.89722 8.77773 5.47222 8.9444 5.11667 9.16662C4.76111 9.38884 4.48611 9.64718 4.29167 9.94162C4.09722 10.2361 4 10.5611 4 10.9166V12H11.9729L10.5108 10.5379C10.4923 10.5172 10.4719 10.4968 10.4496 10.4767L8.48608 8.51316ZM10.4496 10.4767C10.2892 10.3318 10.031 10.2007 9.675 10.0833C9.16944 9.91662 8.61111 9.83329 8 9.83329C7.38889 9.83329 6.83056 9.91662 6.325 10.0833C5.81944 10.25 5.51667 10.4444 5.41667 10.6666H10.6C10.578 10.6226 10.5483 10.5797 10.5108 10.5379L10.4496 10.4767ZM13.8585 12H16V10.95C16 10.4611 15.7556 10.0694 15.2667 9.77495C14.7778 9.48051 14.1333 9.33329 13.3333 9.33329C13.2 9.33329 13.0694 9.33606 12.9417 9.34162C12.8139 9.34717 12.6889 9.36106 12.5667 9.38329C12.7111 9.60551 12.8194 9.8444 12.8917 10.1C12.9639 10.3555 13 10.6277 13 10.9166V11.1415L13.8585 12ZM0 12V10.95C0 10.4722 0.244444 10.0833 0.733333 9.78329C1.22222 9.48329 1.86667 9.33329 2.66667 9.33329C2.81111 9.33329 2.95 9.33606 3.08333 9.34162C3.21667 9.34717 3.34444 9.36106 3.46667 9.38329C3.31111 9.61662 3.19444 9.86106 3.11667 10.1166C3.03889 10.3722 3 10.6388 3 10.9166V12H0ZM2.66667 8.66662C2.3 8.66662 1.98611 8.53606 1.725 8.27495C1.46389 8.01384 1.33333 7.69995 1.33333 7.33329C1.33333 6.95551 1.46389 6.63884 1.725 6.38329C1.98611 6.12773 2.3 5.99995 2.66667 5.99995C3.04444 5.99995 3.36111 6.12773 3.61667 6.38329C3.87222 6.63884 4 6.95551 4 7.33329C4 7.69995 3.87222 8.01384 3.61667 8.27495C3.36111 8.53606 3.04444 8.66662 2.66667 8.66662ZM13.3333 8.66662C12.9667 8.66662 12.6528 8.53606 12.3917 8.27495C12.1306 8.01384 12 7.69995 12 7.33329C12 6.95551 12.1306 6.63884 12.3917 6.38329C12.6528 6.12773 12.9667 5.99995 13.3333 5.99995C13.7111 5.99995 14.0278 6.12773 14.2833 6.38329C14.5389 6.63884 14.6667 6.95551 14.6667 7.33329C14.6667 7.69995 14.5389 8.01384 14.2833 8.27495C14.0278 8.53606 13.7111 8.66662 13.3333 8.66662Z" fill="#A94E00"/>
</svg>
