<svg width="16" height="16" viewBox="0 0 16 16" fill="none" xmlns="http://www.w3.org/2000/svg">
<path d="M4.33333 3.99967C3.96667 3.99967 3.65278 3.86912 3.39167 3.60801C3.13056 3.3469 3 3.03301 3 2.66634C3 2.29967 3.13056 1.98579 3.39167 1.72467C3.65278 1.46356 3.96667 1.33301 4.33333 1.33301C4.7 1.33301 5.01389 1.46356 5.275 1.72467C5.53611 1.98579 5.66667 2.29967 5.66667 2.66634C5.66667 3.03301 5.53611 3.3469 5.275 3.60801C5.01389 3.86912 4.7 3.99967 4.33333 3.99967ZM11.3333 7.33301C11.0556 7.33301 10.8194 7.23579 10.625 7.04134C10.4306 6.8469 10.3333 6.61079 10.3333 6.33301C10.3333 6.05523 10.4306 5.81912 10.625 5.62467C10.8194 5.43023 11.0556 5.33301 11.3333 5.33301C11.6111 5.33301 11.8472 5.43023 12.0417 5.62467C12.2361 5.81912 12.3333 6.05523 12.3333 6.33301C12.3333 6.61079 12.2361 6.8469 12.0417 7.04134C11.8472 7.23579 11.6111 7.33301 11.3333 7.33301ZM3 14.6663V9.99967H2V5.99967C2 5.63301 2.13056 5.31912 2.39167 5.05801C2.65278 4.7969 2.96667 4.66634 3.33333 4.66634H5.33333C5.57778 4.66634 5.8 4.72467 6 4.84134C6.2 4.95801 6.36111 5.1219 6.48333 5.33301L8.86667 9.44967L9.55 8.43301C9.63889 8.29967 9.75833 8.19412 9.90833 8.11634C10.0583 8.03856 10.2167 7.99967 10.3833 7.99967H12.3333C12.6111 7.99967 12.8472 8.0969 13.0417 8.29134C13.2361 8.48579 13.3333 8.7219 13.3333 8.99967V11.333H12.6667V14.6663H10V9.93301L9.48333 10.6663H8.01667L6.33333 7.73301V14.6663H3Z" fill="#2B2851"/>
</svg>
