<svg width="16" height="16" viewBox="0 0 16 16" fill="none" xmlns="http://www.w3.org/2000/svg">
<path d="M1.85834 1.88538L5.33339 5.36043L7.97313 8.00017L8.66364 8.69068L10.3327 10.3597L11.9732 12.0003L13.3066 13.3336L14.1149 14.1419L13.1721 15.0847L0.915532 2.82819L1.85834 1.88538Z" fill="#A94E00"/>
<path d="M1.85772 1.88588L14.1142 14.1424L13.1713 15.0854L0.914795 2.82888L1.85772 1.88588Z" fill="#A94E00"/>
<path fill-rule="evenodd" clip-rule="evenodd" d="M9.88328 7.21695C9.7431 7.35713 9.59532 7.47849 9.43993 7.58104L8.45087 6.59199C8.63115 6.52773 8.79473 6.42216 8.94161 6.27528C9.20272 6.01417 9.33328 5.70028 9.33328 5.33362C9.33328 4.96695 9.20272 4.65306 8.94161 4.39195C8.6805 4.13084 8.36661 4.00028 7.99995 4.00028C7.63328 4.00028 7.31939 4.13084 7.05828 4.39195C6.9114 4.53883 6.80583 4.70241 6.74157 4.88269L5.75252 3.89363C5.85507 3.73825 5.97643 3.59046 6.11661 3.45028C6.63883 2.92806 7.26661 2.66695 7.99995 2.66695C8.73328 2.66695 9.36106 2.92806 9.88328 3.45028C10.4055 3.97251 10.6666 4.60028 10.6666 5.33362C10.6666 6.06695 10.4055 6.69473 9.88328 7.21695ZM11.0414 9.18253L13.3333 11.4744V11.467C13.3333 11.0892 13.2361 10.742 13.0416 10.4253C12.8472 10.1086 12.5888 9.86695 12.2666 9.70028C11.862 9.498 11.4536 9.32541 11.0414 9.18253ZM13.3066 13.3336L11.9732 12.0003H3.99994V11.467C3.99994 11.3447 4.0305 11.2336 4.09161 11.1336C4.15272 11.0336 4.23328 10.9558 4.33328 10.9003C4.93328 10.6003 5.53883 10.3753 6.14994 10.2253C6.76105 10.0753 7.37772 10.0003 7.99995 10.0003C8.62217 10.0003 9.23884 10.0753 9.84995 10.2253C10.0113 10.2649 10.1722 10.3097 10.3327 10.3597L8.66364 8.69068C8.44343 8.67486 8.2222 8.66695 7.99995 8.66695C7.26661 8.66695 6.54439 8.75306 5.83328 8.92528C5.12217 9.09751 4.42217 9.35584 3.73328 9.70028C3.41105 9.86695 3.15272 10.1086 2.95828 10.4253C2.76383 10.742 2.66661 11.0892 2.66661 11.467V13.3336H13.3066ZM5.33339 5.36043L7.97313 8.00017C7.2513 7.99387 6.63245 7.7328 6.11661 7.21695C5.60076 6.7011 5.33969 6.08227 5.33339 5.36043Z" fill="#A94E00"/>
</svg>
